<?xml version="1.0" encoding="UTF-8"?>
<svg id="Capa_2" xmlns="http://www.w3.org/2000/svg" version="1.1" viewBox="0 0 841.89 235.48">
  <!-- Generator: Adobe Illustrator 29.1.0, SVG Export Plug-In . SVG Version: 2.1.0 Build 142)  -->
  <defs>
    <style>
      .st0 {
        fill: #59351e;
      }
    </style>
  </defs>
  <g>
    <path class="st0" d="M0,28.09h13.8v169.14s78.34,2.67,137.54,34.72C86.8,213.69,0,211.91,0,211.91c0,0,0-184.27,0-183.83Z"/>
    <path class="st0" d="M324.11,28.09h-13.8v169.14s-78.34,2.67-137.54,34.72c64.54-18.25,151.34-20.03,151.34-20.03,0,0,0-184.27,0-183.83Z"/>
    <path class="st0" d="M162.02,47.26C97.49-.41,26.24,0,26.24,0v183.45c83.24,9.76,135.78,52.04,135.78,52.04,0,0,52.54-42.28,135.78-52.04V0s-71.24-.41-135.78,47.26ZM157.55,73.48h-10.26v30.29h-30.18v28.46h29.78v28.97h10.67v60.06s-46.75-32.93-119.72-48.99V12.09s71.65,5.79,119.72,41.77v19.61ZM286.22,172.27c-72.97,16.06-119.72,48.99-119.72,48.99v-60.06h10.67v-28.97h29.78v-28.46h-30.18v-30.29h-10.26v-19.61c48.07-35.98,119.72-41.77,119.72-41.77v160.17Z"/>
  </g>
  <g>
    <g>
      <path class="st0" d="M363.34,40.04h49.3v14.27h-2.1c-.12-2.13-.46-4.02-1.01-5.67-.55-1.64-1.59-2.94-3.11-3.89-1.52-.94-3.84-1.42-6.95-1.42h-7.59v48.39c0,2.07.23,3.6.69,4.57.46.98,1.31,1.62,2.56,1.92,1.25.31,3.06.49,5.44.55v2.1h-22.87v-2.1c1.64-.06,2.94-.24,3.89-.55.94-.3,1.6-.94,1.97-1.92.37-.97.55-2.5.55-4.57v-48.39h-7.69c-3.05,0-5.33.48-6.86,1.42-1.52.95-2.56,2.24-3.11,3.89-.55,1.65-.88,3.54-1,5.67h-2.1v-14.27Z"/>
      <path class="st0" d="M422.42,100.87v-2.1c1.64-.06,2.94-.24,3.89-.55.94-.3,1.6-.94,1.97-1.92.37-.97.55-2.5.55-4.57v-42.53c0-2.13-.23-3.67-.68-4.62-.46-.94-1.3-1.57-2.52-1.88-1.22-.3-3.05-.49-5.49-.55v-2.1h22.87v2.1c-1.65.06-2.93.24-3.84.55-.92.31-1.57.93-1.97,1.88-.4.95-.6,2.49-.6,4.62v16.01c.49-.37,1.08-.61,1.79-.73.7-.12,1.54-.18,2.52-.18h24.15c1.65,0,2.8-.27,3.47-.82.67-.55,1.01-1.64,1.01-3.29v-10.98c0-2.13-.23-3.67-.68-4.62-.46-.94-1.3-1.57-2.52-1.88-1.22-.3-3.05-.49-5.49-.55v-2.1h22.87v2.1c-1.65.06-2.93.24-3.84.55-.92.31-1.57.93-1.97,1.88-.4.95-.6,2.49-.6,4.62v42.53c0,2.07.21,3.6.64,4.57.43.98,1.27,1.62,2.52,1.92,1.25.31,3.06.49,5.44.55v2.1h-22.77v-2.1c1.65-.06,2.94-.24,3.89-.55.94-.3,1.6-.94,1.97-1.92.37-.97.55-2.5.55-4.57v-25.15c-.49.43-1.1.7-1.83.82-.73.12-1.55.18-2.47.18h-24.15c-1.65,0-2.81.27-3.48.82-.67.55-1.01,1.61-1.01,3.2v20.12c0,2.07.23,3.6.69,4.57.46.98,1.3,1.62,2.52,1.92,1.22.31,3.02.49,5.39.55v2.1h-22.77Z"/>
      <path class="st0" d="M495.69,100.87v-2.1c1.64-.06,2.92-.24,3.84-.55.91-.3,1.57-.94,1.97-1.92.4-.97.6-2.5.6-4.57v-42.53c0-2.13-.23-3.67-.68-4.62-.46-.94-1.3-1.57-2.52-1.88-1.22-.3-3.05-.49-5.49-.55v-2.1h43.54v12.8h-2.1c-.06-1.95-.36-3.64-.91-5.08-.55-1.43-1.55-2.53-3.02-3.29-1.46-.76-3.63-1.15-6.5-1.15h-10.52c-1.28,0-2.27.31-2.97.92-.7.61-1.05,2.25-1.05,4.94v17.2c.49-.37,1.08-.61,1.79-.73.7-.12,1.54-.18,2.52-.18h12.9c3.6,0,5.49-2.01,5.67-6.04h2.1v15.55h-2.1c-.06-2.5-.49-4.16-1.28-4.99-.79-.82-2.25-1.24-4.39-1.24h-12.71c-1.65,0-2.81.28-3.48.82-.67.55-1.01,1.62-1.01,3.2v18.94c0,2.62.48,4.25,1.42,4.89.95.64,2.79.96,5.53.96h12.71c2.99,0,5.33-.5,7.05-1.51,1.7-1,2.95-2.35,3.75-4.02s1.28-3.49,1.46-5.44h2.1l-.73,14.27h-47.47Z"/>
      <path class="st0" d="M580.21,100.87v-2.1c1.64-.06,2.94-.24,3.89-.55.94-.3,1.6-.94,1.97-1.92.37-.97.55-2.5.55-4.57v-42.53c0-2.13-.23-3.67-.68-4.62-.46-.94-1.3-1.57-2.52-1.88-1.22-.3-3.05-.49-5.49-.55v-2.1h8.69c2.99,0,5.42-.04,7.31-.14,1.89-.09,3.64-.17,5.26-.23s3.49-.09,5.63-.09c6.46,0,11.19,1.11,14.18,3.33,2.99,2.23,4.48,5.14,4.48,8.74s-1.22,6.67-3.66,8.87c-2.44,2.2-5.43,3.94-8.97,5.22v.18c3.72.18,7.03.9,9.92,2.15s5.2,3.01,6.91,5.26c1.71,2.26,2.56,5,2.56,8.23s-.84,6.23-2.52,9.19-4.3,5.38-7.87,7.28-8.22,2.83-13.95,2.83h-25.7ZM594.38,67.02c.79-.55,1.54-.9,2.24-1.05.7-.15,1.54-.26,2.52-.32,1.83-.18,3.67-.47,5.53-.87s3.57-1.05,5.12-1.97c1.56-.91,2.82-2.18,3.8-3.8.98-1.61,1.46-3.67,1.46-6.17,0-2.86-.67-5-2.01-6.4-1.34-1.4-3.02-2.35-5.03-2.83-2.01-.49-4.09-.73-6.22-.73-2.62,0-4.51.34-5.67,1.01-1.16.67-1.74,2.44-1.74,5.3v17.84ZM605.17,97.57c4.33,0,7.7-.79,10.11-2.38,2.41-1.58,4.1-3.55,5.08-5.9.98-2.35,1.46-4.68,1.46-7,0-3.35-.84-6.02-2.52-8-1.68-1.98-3.93-3.42-6.77-4.3-2.83-.88-6.02-1.32-9.56-1.32-2.99,0-5.17.38-6.54,1.14-1.37.76-2.06,2.18-2.06,4.25v17.66c0,1.77.31,3.06.92,3.89.61.82,1.69,1.36,3.25,1.6s3.77.36,6.63.36Z"/>
      <path class="st0" d="M670.94,38.67c4.14,0,8.05.73,11.71,2.2s6.92,3.58,9.79,6.36,5.11,6.11,6.72,10.01c1.61,3.9,2.42,8.26,2.42,13.08s-.81,9.18-2.42,13.08c-1.62,3.91-3.84,7.26-6.68,10.06-2.83,2.8-6.11,4.97-9.83,6.5-3.72,1.52-7.65,2.28-11.8,2.28s-7.97-.73-11.66-2.19-6.95-3.58-9.79-6.36-5.06-6.11-6.68-10.01c-1.61-3.9-2.42-8.26-2.42-13.08s.81-9.18,2.42-13.08c1.62-3.9,3.85-7.26,6.68-10.06s6.1-4.97,9.79-6.5,7.61-2.29,11.76-2.29ZM672.22,98.58c3.66,0,7.03-1.01,10.1-3.02,3.08-2.01,5.57-4.99,7.46-8.92,1.89-3.94,2.83-8.8,2.83-14.59,0-6.34-1.1-11.72-3.3-16.14-2.19-4.42-5.03-7.79-8.51-10.11-3.47-2.32-7.2-3.47-11.16-3.47-3.66,0-7.05,1-10.15,3.02-3.11,2.01-5.61,4.98-7.5,8.92-1.89,3.93-2.83,8.8-2.83,14.59,0,6.34,1.1,11.72,3.29,16.14,2.2,4.42,5.06,7.79,8.6,10.11,3.53,2.32,7.26,3.47,11.16,3.47Z"/>
      <path class="st0" d="M743.2,38.67c4.14,0,8.05.73,11.71,2.2s6.92,3.58,9.79,6.36,5.11,6.11,6.72,10.01c1.61,3.9,2.42,8.26,2.42,13.08s-.81,9.18-2.42,13.08c-1.62,3.91-3.84,7.26-6.68,10.06-2.83,2.8-6.11,4.97-9.83,6.5-3.72,1.52-7.65,2.28-11.8,2.28s-7.97-.73-11.66-2.19-6.95-3.58-9.79-6.36-5.06-6.11-6.68-10.01c-1.61-3.9-2.42-8.26-2.42-13.08s.81-9.18,2.42-13.08c1.62-3.9,3.85-7.26,6.68-10.06s6.1-4.97,9.79-6.5,7.61-2.29,11.76-2.29ZM744.48,98.58c3.66,0,7.03-1.01,10.1-3.02,3.08-2.01,5.57-4.99,7.46-8.92,1.89-3.94,2.83-8.8,2.83-14.59,0-6.34-1.1-11.72-3.3-16.14-2.19-4.42-5.03-7.79-8.51-10.11-3.47-2.32-7.2-3.47-11.16-3.47-3.66,0-7.05,1-10.15,3.02-3.11,2.01-5.61,4.98-7.5,8.92-1.89,3.93-2.83,8.8-2.83,14.59,0,6.34,1.1,11.72,3.29,16.14,2.2,4.42,5.06,7.79,8.6,10.11,3.53,2.32,7.26,3.47,11.16,3.47Z"/>
      <path class="st0" d="M836.95,101.42c-3.54,0-6.25-.69-8.14-2.06-1.89-1.37-3.66-3.1-5.3-5.17l-18.94-23.78c-.79-.97-1.4-1.65-1.83-2.01-.43-.37-.89-.55-1.37-.55s-.91.17-1.28.5c-.37.34-.55,1.05-.55,2.15v21.22c0,2.07.23,3.6.69,4.57.46.98,1.3,1.62,2.52,1.92,1.22.31,3.02.49,5.39.55v2.1h-22.77v-2.1c1.64-.06,2.94-.24,3.89-.55.94-.3,1.6-.94,1.97-1.92.37-.97.55-2.5.55-4.57v-42.53c0-2.13-.23-3.67-.68-4.62-.46-.94-1.3-1.57-2.52-1.88-1.22-.3-3.05-.49-5.49-.55v-2.1h22.87v2.1c-1.65.06-2.93.24-3.84.55-.92.31-1.57.93-1.97,1.88-.4.95-.6,2.49-.6,4.62v15.27h.18l19.58-15.91c1.46-1.22,2.41-2.13,2.83-2.74s.64-1.16.64-1.65c0-.61-.33-1.08-1.01-1.42-.67-.33-1.95-.53-3.84-.59v-2.1h19.21v2.1c-1.83.12-3.47.58-4.94,1.37-1.46.79-3.14,1.96-5.03,3.48l-17.38,14.18c-.98.73-.98,1.74,0,3.02l21.4,27.26c1.65,2.07,3,3.63,4.07,4.66s2.1,1.74,3.11,2.1c1.01.37,2.18.55,3.52.55v2.1c-1.64.37-3.29.55-4.94.55Z"/>
    </g>
    <g>
      <path class="st0" d="M365.82,195.32v-2.29c1.79-.06,3.19-.26,4.22-.6,1.02-.33,1.74-1.02,2.14-2.09.4-1.06.6-2.71.6-4.97v-46.23c0-2.32-.25-3.99-.74-5.02-.5-1.02-1.41-1.7-2.73-2.04-1.33-.33-3.32-.53-5.96-.59v-2.29h24.85v2.29c-1.79.06-3.18.26-4.17.59-1,.33-1.71,1.01-2.14,2.04-.43,1.03-.65,2.7-.65,5.02v17.4c.53-.4,1.18-.66,1.94-.8.76-.13,1.67-.2,2.73-.2h26.24c1.79,0,3.05-.3,3.78-.9.73-.59,1.09-1.79,1.09-3.58v-11.93c0-2.32-.25-3.99-.74-5.02-.5-1.02-1.41-1.7-2.73-2.04-1.33-.33-3.32-.53-5.96-.59v-2.29h24.85v2.29c-1.79.06-3.18.26-4.17.59-1,.33-1.71,1.01-2.14,2.04-.44,1.03-.65,2.7-.65,5.02v46.23c0,2.25.23,3.91.7,4.97.46,1.06,1.38,1.76,2.73,2.09,1.35.33,3.33.53,5.91.6v2.29h-24.75v-2.29c1.79-.06,3.19-.26,4.22-.6,1.02-.33,1.74-1.02,2.14-2.09.4-1.06.6-2.71.6-4.97v-27.34c-.53.46-1.19.76-1.99.9-.79.13-1.69.2-2.68.2h-26.24c-1.79,0-3.05.3-3.78.9-.73.59-1.09,1.75-1.09,3.48v21.87c0,2.25.25,3.91.75,4.97.5,1.06,1.41,1.76,2.73,2.09,1.32.33,3.28.53,5.86.6v2.29h-24.75Z"/>
      <path class="st0" d="M478.15,127.72c4.5,0,8.75.8,12.72,2.39,3.97,1.59,7.52,3.89,10.64,6.91s5.55,6.64,7.31,10.88c1.75,4.24,2.63,8.98,2.63,14.22s-.88,9.97-2.63,14.21c-1.76,4.24-4.17,7.89-7.26,10.94-3.08,3.05-6.64,5.4-10.68,7.06-4.04,1.66-8.32,2.48-12.83,2.48s-8.67-.79-12.67-2.38c-4.01-1.59-7.56-3.89-10.64-6.91s-5.5-6.64-7.26-10.88c-1.75-4.24-2.63-8.98-2.63-14.22s.88-9.97,2.63-14.22c1.76-4.24,4.18-7.89,7.26-10.93,3.08-3.05,6.63-5.4,10.64-7.06,4.01-1.66,8.27-2.49,12.78-2.49ZM479.55,192.84c3.97,0,7.64-1.09,10.98-3.28,3.35-2.19,6.05-5.42,8.11-9.69,2.05-4.28,3.08-9.56,3.08-15.86,0-6.89-1.19-12.74-3.58-17.54-2.38-4.81-5.46-8.47-9.24-10.99-3.78-2.52-7.82-3.78-12.12-3.78-3.98,0-7.66,1.09-11.03,3.28-3.38,2.18-6.1,5.41-8.15,9.69-2.05,4.27-3.08,9.56-3.08,15.86,0,6.89,1.19,12.74,3.58,17.54,2.39,4.81,5.5,8.47,9.35,10.99,3.84,2.52,7.89,3.78,12.13,3.78Z"/>
      <path class="st0" d="M543.46,196.81c-1.86,0-3.91-.22-6.16-.64-2.25-.43-4.39-1.11-6.41-2.04-2.02-.93-3.68-2.21-4.97-3.83s-1.94-3.63-1.94-6.01c0-1.33.16-2.72.5-4.17.33-1.46.76-2.65,1.29-3.58h2.29c.26,5.04,1.92,9.02,4.97,11.93,3.05,2.92,6.93,4.37,11.63,4.37,3.25,0,5.85-.59,7.8-1.79,1.96-1.19,3.38-2.73,4.28-4.62.9-1.89,1.34-3.89,1.34-6.01,0-3.05-.77-5.55-2.29-7.5-1.53-1.96-3.5-3.61-5.92-4.97-2.42-1.36-4.97-2.65-7.65-3.88-2.69-1.22-5.24-2.6-7.65-4.13-2.42-1.52-4.4-3.41-5.92-5.66-1.53-2.25-2.29-5.1-2.29-8.55s.9-6.71,2.69-9.39c1.79-2.69,4.3-4.79,7.55-6.32,3.25-1.52,7.06-2.29,11.43-2.29,3.85,0,7.01.3,9.49.9,2.49.6,4.49,1.19,6.01,1.79v14.42h-2.28c-.4-4.24-1.66-7.49-3.78-9.75-2.12-2.25-5.5-3.38-10.14-3.38-3.25,0-5.88.51-7.9,1.54-2.02,1.03-3.48,2.36-4.37,3.97-.9,1.63-1.34,3.33-1.34,5.12,0,2.65.76,4.84,2.29,6.56,1.52,1.73,3.49,3.21,5.91,4.48,2.42,1.26,5,2.52,7.76,3.78,2.75,1.26,5.33,2.72,7.76,4.37,2.42,1.66,4.39,3.71,5.92,6.16,1.52,2.45,2.29,5.57,2.29,9.35,0,4.11-.95,7.64-2.84,10.59-1.89,2.94-4.51,5.22-7.85,6.81-3.35,1.59-7.17,2.38-11.48,2.38Z"/>
      <path class="st0" d="M578.56,195.32v-2.29c1.79-.06,3.19-.26,4.22-.6,1.02-.33,1.74-1.02,2.14-2.09.4-1.06.6-2.71.6-4.97v-46.23c0-2.32-.25-3.99-.74-5.02-.5-1.02-1.41-1.7-2.73-2.04-1.33-.33-3.32-.53-5.96-.59v-2.29h9.44c4.5,0,8.17-.09,10.98-.25,2.82-.17,5.09-.25,6.81-.25,6.89,0,12.43,1.34,16.6,4.02,4.17,2.69,6.26,6.51,6.26,11.48,0,2.38-.54,4.74-1.64,7.06-1.09,2.32-2.83,4.39-5.22,6.21-2.39,1.82-5.5,3.18-9.35,4.07-3.85.9-8.52,1.08-14.02.55v-2.98c5.3.46,9.46.05,12.47-1.25,3.01-1.29,5.16-3.11,6.41-5.46s1.89-4.89,1.89-7.6c0-3.38-.74-5.98-2.23-7.8-1.49-1.82-3.45-3.07-5.87-3.73-2.42-.66-5.02-.99-7.8-.99-2.25,0-3.96.4-5.12,1.19-1.16.8-1.74,2.69-1.74,5.67v46.23c0,2.25.25,3.91.75,4.97.5,1.06,1.49,1.76,2.98,2.09,1.49.33,3.69.53,6.61.6v2.29h-25.74Z"/>
      <path class="st0" d="M637.11,195.32v-2.29c1.79-.06,3.2-.26,4.23-.6,1.02-.33,1.74-1.02,2.14-2.09.4-1.06.6-2.71.6-4.97v-46.23c0-2.32-.25-3.99-.75-5.02-.5-1.02-1.41-1.7-2.73-2.04-1.33-.33-3.32-.53-5.96-.59v-2.29h24.85v2.29c-1.79.06-3.18.26-4.18.59-.99.33-1.7,1.01-2.14,2.04-.43,1.03-.65,2.7-.65,5.02v46.23c0,2.25.25,3.91.75,4.97.5,1.06,1.42,1.76,2.78,2.09,1.35.33,3.33.53,5.91.6v2.29h-24.85Z"/>
      <path class="st0" d="M671.01,129.22h53.58v15.51h-2.29c-.13-2.32-.5-4.37-1.09-6.16-.6-1.79-1.73-3.19-3.38-4.22-1.66-1.02-4.17-1.54-7.56-1.54h-8.25v52.59c0,2.25.25,3.91.75,4.97.5,1.06,1.42,1.76,2.78,2.09,1.36.33,3.33.53,5.92.6v2.29h-24.85v-2.29c1.79-.06,3.19-.26,4.22-.6,1.02-.33,1.74-1.02,2.14-2.09.4-1.06.6-2.71.6-4.97v-52.59h-8.35c-3.31,0-5.8.52-7.45,1.54-1.66,1.03-2.78,2.44-3.38,4.22-.59,1.79-.96,3.85-1.09,6.16h-2.29v-15.51Z"/>
      <path class="st0" d="M778.66,185.38c.79,2.32,1.55,3.99,2.29,5.02.73,1.02,1.6,1.69,2.63,1.98,1.02.3,2.4.52,4.13.65v2.29h-23.76v-2.29c2.25-.13,3.93-.36,5.02-.7,1.09-.33,1.71-1.02,1.84-2.09.13-1.06-.19-2.69-.99-4.87l-5.66-17.1c-.33.33-.83.55-1.49.65-.66.1-1.36.15-2.09.15h-13.02c-1.46,0-2.55.17-3.28.5-.73.33-1.36,1.23-1.89,2.69l-4.67,13.12c-.86,2.52-.85,4.39.05,5.61.9,1.23,3.46,1.91,7.7,2.04v2.29h-20.58v-2.29c2.12-.13,3.79-.81,5.02-2.04s2.3-3.1,3.23-5.61l17.59-48.31c.66-1.73,1.29-3.41,1.89-5.07.6-1.66,1.13-3.35,1.59-5.07h4.87c.46,1.72.98,3.41,1.54,5.07.56,1.66,1.18,3.34,1.84,5.07l16.21,48.31ZM760.77,165.5c.86,0,1.46-.11,1.79-.35.33-.23.33-.74,0-1.54l-8.15-24.16h-.2l-9.54,26.35c.33-.13.73-.22,1.19-.25s.99-.05,1.59-.05h13.32Z"/>
      <path class="st0" d="M794.37,195.32v-2.29c1.79-.06,3.18-.26,4.17-.6.99-.33,1.7-1.02,2.14-2.09.43-1.06.65-2.71.65-4.97v-46.23c0-2.32-.25-3.99-.74-5.02-.5-1.02-1.41-1.7-2.73-2.04-1.33-.33-3.32-.53-5.96-.59v-2.29h24.85v2.29c-1.79.06-3.18.26-4.17.59-1,.33-1.71,1.01-2.14,2.04-.43,1.03-.65,2.7-.65,5.02v46.23c0,2.85.52,4.62,1.54,5.32,1.03.7,3.03,1.04,6.01,1.04h9.05c3.31,0,5.88-.54,7.7-1.64,1.82-1.09,3.15-2.55,3.97-4.37.83-1.82,1.34-3.79,1.54-5.91h2.29l-.79,15.51h-46.72Z"/>
    </g>
  </g>
</svg>